<svg width="15" height="15" viewBox="0 0 15 15" fill="none" xmlns="http://www.w3.org/2000/svg">
<path fill-rule="evenodd" clip-rule="evenodd" d="M13.9335 4.9584V4.96118C14.2814 5.79895 14.4583 6.68919 14.4583 7.60807C14.4583 11.4438 11.3359 14.5662 7.50016 14.5662C3.66444 14.5662 0.541992 11.4438 0.541992 7.60807C0.541992 3.77233 3.66444 0.649902 7.50016 0.649902C8.22497 0.649902 8.94113 0.762828 9.62297 0.983496C9.62579 0.983496 9.62579 0.986276 9.62579 0.986276H9.6345C9.64425 0.989605 9.65214 0.995542 9.66031 1.00165L9.668 1.00731L9.67129 1.0096L9.675 1.01196L9.67699 1.01313L9.68104 1.01531C9.69573 1.02406 9.71323 1.02684 9.72758 1.03837C9.72758 1.03837 9.72758 1.03932 9.72813 1.04011C9.72847 1.04067 9.72915 1.04115 9.73032 1.04115C9.74597 1.05709 9.75723 1.07305 9.76999 1.09112L9.7737 1.09642C9.77542 1.09867 9.7772 1.1008 9.77905 1.10289L9.7831 1.10739C9.78674 1.11138 9.79038 1.11538 9.79354 1.11983C9.79601 1.12322 9.7982 1.1269 9.79992 1.13102C9.80459 1.13917 9.80761 1.14805 9.80987 1.15734L9.81104 1.16252L9.81234 1.16885L9.81427 1.18031L9.81694 1.18764L9.81983 1.19521L9.82003 1.19577C9.82483 1.2083 9.82978 1.22126 9.83177 1.23558C9.83177 1.24032 9.83115 1.24514 9.83053 1.25014V1.25243C9.82978 1.25894 9.82895 1.26582 9.82895 1.27335C9.82895 1.29959 9.82621 1.32265 9.82024 1.3489V1.35168C9.81687 1.36145 9.81097 1.37034 9.80527 1.37878C9.80081 1.38547 9.79656 1.39187 9.79395 1.3982C9.78523 1.41571 9.77926 1.43319 9.76773 1.4475C9.39633 1.89999 9.19358 2.46539 9.19358 3.0451C9.19358 4.43355 10.324 5.56436 11.7128 5.56436C12.3681 5.56436 12.9884 5.31228 13.4611 4.85422C13.465 4.85098 13.4689 4.84822 13.4728 4.84573C13.4785 4.84216 13.4841 4.83916 13.4897 4.83617C13.4947 4.83357 13.4996 4.83096 13.5045 4.82799C13.522 4.81646 13.5335 4.80493 13.551 4.79618H13.5569C13.5772 4.78782 13.6007 4.78464 13.6238 4.78186C13.638 4.78186 13.6528 4.77311 13.6671 4.77589C13.6846 4.77589 13.6989 4.78186 13.7164 4.78464C13.7367 4.78742 13.7569 4.7902 13.7744 4.79618C13.782 4.79983 13.7884 4.80486 13.7951 4.81035L13.7988 4.8134L13.8063 4.81924C13.8293 4.83077 13.8496 4.8423 13.8698 4.8598C13.8698 4.86147 13.8698 4.86214 13.8705 4.86241C13.8709 4.86258 13.8715 4.86258 13.8726 4.86258C13.8842 4.87689 13.8929 4.89438 13.9017 4.91188C13.9104 4.92619 13.9247 4.93494 13.9307 4.95243C13.9307 4.95418 13.9307 4.95497 13.9312 4.95579L13.932 4.95689L13.9335 4.9584ZM2.57139 8.47764C2.57139 9.11859 3.0907 9.63747 3.73122 9.63747C4.37174 9.63747 4.89105 9.11859 4.89105 8.47764C4.89105 7.8367 4.37174 7.31782 3.73122 7.31782C3.09029 7.31782 2.57139 7.8371 2.57139 8.47764ZM5.47035 3.54888C4.99202 3.54888 4.60079 3.94053 4.60079 4.41884C4.60079 4.89717 4.99243 5.28882 5.47035 5.28842C5.9491 5.28842 6.34033 4.89717 6.34033 4.41884C6.34033 3.94011 5.94868 3.54888 5.47035 3.54888ZM7.21031 11.377C7.21031 11.8557 7.60154 12.247 8.07987 12.247C8.5582 12.247 8.94985 11.8553 8.94985 11.377C8.94985 10.8987 8.5582 10.5074 8.07987 10.5074C7.60154 10.5074 7.21031 10.8987 7.21031 11.377ZM7.50016 7.46294C7.50016 8.10389 8.01947 8.62277 8.65999 8.62277C9.30052 8.62277 9.81941 8.10389 9.81983 7.46294C9.81983 6.822 9.30052 6.30312 8.65999 6.30312C8.01906 6.30312 7.50016 6.8224 7.50016 7.46294Z" fill="white"/>
</svg>
