<svg width="39" height="33" viewBox="0 0 39 33" fill="none" xmlns="http://www.w3.org/2000/svg">
<path d="M37 30.9999C37 27.6327 33.7535 24.7682 29.2222 23.7066M25.3333 31C25.3333 26.729 20.11 23.2667 13.6667 23.2667C7.22334 23.2667 2 26.729 2 31M25.3333 17.4667C29.6289 17.4667 33.1111 14.0043 33.1111 9.73333C33.1111 5.46233 29.6289 2 25.3333 2M13.6667 17.4667C9.37112 17.4667 5.88889 14.0043 5.88889 9.73333C5.88889 5.46233 9.37112 2 13.6667 2C17.9622 2 21.4444 5.46233 21.4444 9.73333C21.4444 14.0043 17.9622 17.4667 13.6667 17.4667Z" stroke="#F39C12" stroke-width="3" stroke-linecap="round" stroke-linejoin="round"/>
</svg>
