<svg width="40" height="40" viewBox="0 0 40 40" fill="none" xmlns="http://www.w3.org/2000/svg">
<path fill-rule="evenodd" clip-rule="evenodd" d="M22.876 27.8696C22.876 26.1149 24.2985 24.6924 26.0532 24.6924C27.4995 24.6924 28.7201 25.6587 29.1045 26.981C29.4861 26.893 29.8836 26.8465 30.292 26.8465C30.963 26.8465 31.6046 26.972 32.1947 27.201C31.8614 24.1039 29.2389 21.6924 26.0532 21.6924C22.6417 21.6924 19.876 24.458 19.876 27.8696C19.876 31.0553 22.2875 33.6777 25.3847 34.011C25.1557 33.4209 25.0301 32.7793 25.0301 32.1083C25.0301 31.7 25.0766 31.3025 25.1646 30.9209C23.8424 30.5365 22.876 29.3159 22.876 27.8696Z" fill="#3498DB"/>
<path d="M35.4077 32.5467C35.4077 35.1299 33.3136 37.2239 30.7305 37.2239C28.1473 37.2239 26.0533 35.1299 26.0533 32.5467C26.0533 29.9636 28.1473 27.8695 30.7305 27.8695C33.3136 27.8695 35.4077 29.9636 35.4077 32.5467Z" stroke="#3498DB" stroke-width="3"/>
<path d="M13.6619 9.7941L12.9892 7.43958C12.5663 5.95949 13.9039 4.57651 15.3973 4.94985L15.6629 5.01627C17.5156 5.47943 19.4728 5.26458 21.1809 4.41054L23.1509 3.42554C23.9041 3.04897 24.757 3.71492 24.5743 4.5369L23.4061 9.7941" stroke="#3498DB" stroke-width="3"/>
<path d="M7.8172 12.0565C7.8172 10.789 8.8447 9.76147 10.1122 9.76147H26.9421C28.2096 9.76147 29.2371 10.789 29.2371 12.0565C29.2371 13.324 28.2096 14.3515 26.9421 14.3515H10.1122C8.8447 14.3515 7.8172 13.324 7.8172 12.0565Z" stroke="#3498DB" stroke-width="3"/>
<path d="M25.4466 14.6156L28.0689 19.2534M23.0743 36.0355H13.9773C7.43138 36.0355 3.257 29.3799 6.36043 23.8912L11.6051 14.6156" stroke="#3498DB" stroke-width="3" stroke-linecap="round"/>
</svg>
