<?xml version="1.0" encoding="UTF-8"?>
<svg id="Ebene_2" data-name="Ebene 2" xmlns="http://www.w3.org/2000/svg" xmlns:xlink="http://www.w3.org/1999/xlink" viewBox="0 0 435.54 125.75">
  <defs>
    <style>
      .cls-1 {
        fill: url(#Unbenannter_Verlauf_21);
      }
    </style>
    <linearGradient id="Unbenannter_Verlauf_21" data-name="Unbenannter Verlauf 21" x1="15.6" y1="93.05" x2="92.42" y2="16.22" gradientUnits="userSpaceOnUse">
      <stop offset=".28" stop-color="#dc04ff"/>
      <stop offset=".72" stop-color="#046eff"/>
    </linearGradient>
  </defs>
  <g id="Ebene_1-2" data-name="Ebene 1">
    <g id="avalco_white">
      <g>
        <path d="m65.87,76.3c2.44-4.88,5.76-8.64,9.97-11.27,4.21-2.63,8.9-3.94,14.08-3.94,4.43,0,8.32.9,11.66,2.7,3.34,1.8,5.91,4.17,7.72,7.1v-8.9h19.26v62.86h-19.26v-8.9c-1.88,2.93-4.49,5.3-7.83,7.1-3.34,1.8-7.23,2.7-11.66,2.7-5.11,0-9.76-1.33-13.97-4-4.21-2.67-7.53-6.46-9.97-11.38-2.44-4.92-3.66-10.61-3.66-17.07s1.22-12.13,3.66-17.01Zm39.43,5.75c-2.67-2.78-5.91-4.17-9.75-4.17s-7.08,1.37-9.74,4.11c-2.67,2.74-4,6.52-4,11.32s1.33,8.62,4,11.43c2.66,2.82,5.91,4.22,9.74,4.22s7.08-1.39,9.75-4.17c2.66-2.78,4-6.57,4-11.38s-1.33-8.6-4-11.38Z"/>
        <path d="m167.42,106.83l13.63-44.84h20.5l-22.31,62.86h-23.77l-22.31-62.86h20.62l13.63,44.84Z"/>
        <path d="m206.12,76.3c2.44-4.88,5.76-8.64,9.97-11.27,4.2-2.63,8.9-3.94,14.08-3.94,4.43,0,8.32.9,11.66,2.7,3.34,1.8,5.91,4.17,7.72,7.1v-8.9h19.26v62.86h-19.26v-8.9c-1.88,2.93-4.49,5.3-7.83,7.1-3.34,1.8-7.23,2.7-11.66,2.7-5.11,0-9.76-1.33-13.97-4-4.21-2.67-7.53-6.46-9.97-11.38-2.44-4.92-3.66-10.61-3.66-17.07s1.22-12.13,3.66-17.01Zm39.43,5.75c-2.67-2.78-5.91-4.17-9.74-4.17s-7.08,1.37-9.75,4.11c-2.67,2.74-4,6.52-4,11.32s1.33,8.62,4,11.43c2.67,2.82,5.91,4.22,9.75,4.22s7.08-1.39,9.74-4.17c2.67-2.78,4-6.57,4-11.38s-1.33-8.6-4-11.38Z"/>
        <path d="m298.67,41.49v83.37h-19.26V41.49h19.26Z"/>
        <path d="m309.43,76.3c2.66-4.88,6.38-8.64,11.15-11.27,4.77-2.63,10.23-3.94,16.39-3.94,7.89,0,14.48,2.07,19.77,6.2,5.29,4.13,8.77,9.95,10.42,17.46h-20.5c-1.73-4.81-5.07-7.21-10.03-7.21-3.53,0-6.35,1.37-8.45,4.11-2.1,2.74-3.15,6.67-3.15,11.77s1.05,9.03,3.15,11.77c2.1,2.74,4.92,4.11,8.45,4.11,4.96,0,8.3-2.4,10.03-7.21h20.5c-1.65,7.36-5.15,13.14-10.48,17.35-5.33,4.21-11.9,6.31-19.71,6.31-6.16,0-11.62-1.31-16.39-3.94-4.77-2.63-8.49-6.38-11.15-11.27-2.67-4.88-4-10.59-4-17.12s1.33-12.24,4-17.12Z"/>
        <path d="m386.03,121.81c-4.92-2.63-8.79-6.38-11.6-11.27-2.82-4.88-4.22-10.59-4.22-17.12s1.43-12.15,4.28-17.07c2.85-4.92,6.76-8.69,11.72-11.32,4.96-2.63,10.51-3.94,16.67-3.94s11.72,1.32,16.67,3.94c4.96,2.63,8.86,6.4,11.72,11.32,2.85,4.92,4.28,10.61,4.28,17.07s-1.45,12.15-4.34,17.07c-2.89,4.92-6.84,8.69-11.83,11.32-5,2.63-10.57,3.94-16.73,3.94s-11.7-1.31-16.62-3.94Zm26.02-16.79c2.59-2.7,3.89-6.57,3.89-11.6s-1.26-8.9-3.77-11.6c-2.52-2.7-5.62-4.06-9.29-4.06s-6.87,1.33-9.35,4c-2.48,2.67-3.72,6.55-3.72,11.66s1.22,8.9,3.66,11.6c2.44,2.7,5.5,4.06,9.18,4.06s6.82-1.35,9.41-4.06Z"/>
      </g>
      <path class="cls-1" d="m54.32,54.32v54.32c-1.32-30.81-23.97-51.32-54.32-54.32h54.32Zm54.32,0c-30.35-3-53-23.51-54.32-54.32v54.32h54.32Z"/>
    </g>
  </g>
</svg>